<?xml version="1.0" encoding="utf-8"?>
<!-- Generator: Adobe Illustrator 24.2.1, SVG Export Plug-In . SVG Version: 6.00 Build 0)  -->
<svg version="1.1" id="Capa_1" xmlns="http://www.w3.org/2000/svg" xmlns:xlink="http://www.w3.org/1999/xlink" x="0px" y="0px"
	 width="512px" height="439.8px" viewBox="0 0 512 439.8" style="enable-background:new 0 0 512 439.8;" xml:space="preserve">
<style type="text/css">
	.st0{fill:#FF6900;}
</style>
<g>
	<g>
		<path class="st0" d="M220.9,5.5c28.4-9.2,60.4-6.7,86.9,7.1c33.1,16.7,56.5,50.5,60.8,87.3c17,4.7,34.2,8.9,51.1,13.7
			c-17,4.7-34.1,9-51.1,13.6c-2.7,22.1-11.9,43.3-26.4,60.2c-17.5,20.6-42.6,34.6-69.3,38.5c-27.8,4.3-57.2-2.2-80.4-18
			c-27.6-18.3-46.1-49.3-49.6-82.2c-16.8-4.4-34-7.3-50.6-12.3c16.8-4.1,33.8-7.6,50.5-12c2.2-15.2,6.5-30.3,14.3-43.7
			C170.8,33,194.1,14,220.9,5.5z M240.5,19.4C220.8,22.6,202,32.1,188,46.5c-29.8,29-36.1,78.2-15.2,114
			c11.8,20.7,31.5,37,54.4,43.9c25.3,7.9,53.9,4.9,76.8-8.6c16.2-9.4,29.5-23.8,37.7-40.7c12.1-24.6,12.6-54.6,1.6-79.7
			c-9.1-21.1-26.1-38.7-47.1-48.3C279,18.9,259.3,16.6,240.5,19.4z"/>
	</g>
	<path class="st0" d="M208.7,46.6c9.7-6.2,20.5-10.7,31.2-14.8c-2.3,5.1-5.9,9.9-6.3,15.7c-1.6,13.4,3.3,26.3,8,38.6
		c4.8,11,9.6,22,14.6,32.9c4.6-13.2,10.9-25.7,16.6-38.5c4-9.6,8-19.7,7.2-30.2c-0.1-6.7-3.6-12.6-6.7-18.3
		c19.6,6.2,39.5,16.1,51.4,33.6c3.7,6.3,8.7,12.7,9,20.2c-5.8,36.7-18.3,73.8-43.4,101.9c-4.5,6.2-12.8,6.5-19.5,8.3
		c9-19.4,17.5-39.2,22.7-60.1c4.5-17,6.1-34.7,6.2-52.3c-15,30.5-28.6,61.8-43.4,92.4c-14.7-30.4-29.3-60.9-44.4-91.1
		c0.8,38.6,12.2,76.3,29.1,110.8c-4.8-1.3-10.2-1.7-14.3-4.8c-28.1-28.1-43.3-67-48.3-105.9C184.5,69.7,194.5,55.4,208.7,46.6z"/>
	<path class="st0" d="M4.1,255.8c18.7,1.7,37.5,3.4,56.1,6.4c4.7,17,9,34.2,14.7,51c4.3-14.4,8.6-28.7,13.2-43
		c0.7-1.4,0.8-4.8,3.3-3.8c9.2,1.1,18.4,2.6,27.6,4c0,36.3-0.1,72.7-0.1,109c-9,0.7-18,1.5-27,2.5c-0.1-16.9,0.3-33.8-0.2-50.7
		c-1.1,1.6-2,3.3-2.7,5.1c-4.9,13-9.3,26.1-14.2,39c-5.6-14.9-10.8-30-16.4-44.9c-0.4,2.3-0.7,4.6-0.7,7c0.1,16.1,0,32.2,0,48.3
		c-18.2,2.1-36.4,4.7-54.5,7.4c10-4.7,20-9.4,30.4-13.1c-0.7-0.1-2-0.4-2.6-0.6c0-30.5-0.1-60.9-0.1-91.4c0.1-7-0.4-14.1,0.5-21.1
		C22.3,263.3,12.9,260.3,4.1,255.8z"/>
	<path class="st0" d="M458.8,262.1c16.2-2.6,32.5-5,48.9-5.8c-9.7,4.2-19.6,7.7-29.2,12.1c2.3-0.2,4.5-0.4,6.8-0.6
		c-4.2,15-8.2,30-12.5,45c-0.8,2.7-1.8,5.6-0.9,8.5c4.6,19.3,9.1,38.7,13.3,58.1c-2.3-0.3-4.7-0.7-7-1c9.7,4.8,19.7,9.1,29.6,13.5
		c-6,0.1-11.8-1.4-17.7-2.3c-10.9-1.9-21.9-3.5-32.9-5c-3.7-16.9-7.3-33.8-10.8-50.7c-1.8,0-3.5,0-5.3,0.1c0.1,16,0,32.1,0,48.2
		c-9.4-0.5-18.8-2-28.2-2.7c0-36.9,0-73.8,0-110.7c9.4-1.5,18.8-2.9,28.2-4.3c0.1,16.8-0.1,33.6,0.1,50.4c0.9,0,2.8,0.1,3.7,0.2
		C449.8,297.4,454.4,279.8,458.8,262.1z"/>
	<g>
		<path class="st0" d="M351.3,277.5c9.9-1.4,19.8-2.6,29.7-4c8.4,35,16.8,70.1,24.6,105.2c-9.2-0.7-18.4-1.6-27.7-2.1
			c-0.9-4.3-1.8-8.6-2.6-12.9c-6.2,0-12.4-0.4-18.6-0.5c-0.9,4-0.8,8.4-2.9,12c-9.1-0.3-18.2-0.7-27.3-1
			C335.2,342,343.5,309.8,351.3,277.5z M360.7,344.4c-4,0.9-8,1.7-11.9,2.6c7.9,0.9,15.8,0.5,23.7,0.5c-2.2-11.2-3.8-22.6-6.2-33.8
			C364.2,323.9,362.5,334.2,360.7,344.4z"/>
	</g>
	<g>
		<path class="st0" d="M150.9,274.6c9.8,1.2,19.6,2.5,29.5,3.4c8.1,32.1,16.1,64.3,24.8,96.3c-9.3,0.6-18.6,0.8-27.9,1.3
			c-0.8-4-1.6-7.9-2.3-11.9c-6.2-0.1-12.4,0.2-18.6,0.4c-0.8,4.2-1.6,8.4-2.4,12.6c-9.3,0.6-18.6,1.3-27.8,1.9
			C133.9,343.8,142.1,309.1,150.9,274.6z M159.8,344.7c-2.1,1-4.8,1.2-6.4,3c6.1,0.3,12.3,0.1,18.4,0.1c-2-11-3.9-22-5.8-33
			C162.9,324.6,162.4,334.9,159.8,344.7z"/>
	</g>
	<path class="st0" d="M192.6,279.6c15.4,1,30.7,2.6,46.2,3.1c4.3,11.7,8.9,23.4,13.2,35.1c0.9-11.5,0.2-23,0.4-34.5
		c9.4-0.1,18.8,0.2,28.2-0.4c0,30.2,0,60.4,0,90.5c-9.4,0-18.8,0-28.3,0c-4.7-12.1-9.8-24.1-14-36.4c-1.2,12.2-0.3,24.6-0.6,36.8
		c-8.5-0.1-17,0.5-25.5,0.4c-0.1-28.8,0-57.5-0.1-86.3c3.7,0.1,7.3,0.3,11,0.9C213,285.7,202.6,283.3,192.6,279.6z"/>
	<path class="st0" d="M291.9,282.7c9.2-0.6,18.4-1.1,27.5-2c0,31.1,0,62.3,0,93.4c-9.1-0.6-18.3,0.1-27.5-0.5
		C292,343.3,291.9,313,291.9,282.7z"/>
	<path class="st0" d="M145.9,405.8c5.2-0.1,10.4-0.1,15.6,0c0,2.5,0,5,0,7.5c-2.5,0-5,0-7.6,0c0,1.4,0,4.4,0,5.8c2.3,0,4.6,0,6.8,0
		c0,2.4,0,4.8,0,7.2c-2.3,0-4.6,0-6.9,0c0,4.5-0.1,9-0.1,13.4c-2.6-0.1-5.2-0.1-7.8-0.1C145.9,428.4,145.8,417.1,145.9,405.8z"/>
	<path class="st0" d="M204.6,405.7c6.3,0.1,12.5,0.1,18.8,0c0,2.7,0,5.3,0,8c-1.8,0-3.7,0-5.5,0.1c0,8.7,0.1,17.3-0.1,26
		c-2.5,0-5.1,0-7.6,0c-0.3-8.7-0.1-17.3-0.1-26c-1.8,0-3.7,0-5.5-0.1C204.6,411.1,204.6,408.4,204.6,405.7z"/>
	<path class="st0" d="M240.5,405.7c2.7,0.1,5.3,0.2,8,0.2c2.9,5.3,4.6,11.4,8.8,15.9c0.2-5.3,0.1-10.7,0.1-16
		c2.6-0.1,5.3-0.1,7.9-0.1c0.1,11.4,0,22.7-0.1,34.1c-2.7,0-5.4-0.1-8.1-0.1c-3-6.1-6.2-12.1-8.7-18.4c-0.2,6.1-0.2,12.3-0.2,18.5
		c-2.6,0-5.3,0-7.9,0C240.5,428.4,240.3,417,240.5,405.7z"/>
	<path class="st0" d="M285,405.8c5.3-0.1,10.6-0.1,15.9,0c0,2.4,0,4.8,0,7.2c-2.5,0-5.1,0-7.6,0c0,1.6,0,4.7,0,6.2
		c2.2,0,4.3,0,6.5,0c0,2.4,0,4.8,0,7.2c-2.2,0-4.3-0.1-6.5-0.1c0,1.5,0,4.5-0.1,5.9c2.5,0,5.1,0,7.6,0c0,2.5,0,5,0,7.5
		c-5.3,0-10.6,0-15.9,0C285.1,428.4,285,417.1,285,405.8z"/>
	<path class="st0" d="M322.5,406.3c3.7-2.6,8.3-1.3,12.4-0.6c0,2.7,0.1,5.5,0.2,8.2c-2.7-0.6-5.7-2.7-8.3-0.8
		c-1.8,3.4,3.1,5.3,4.9,7.4c5.2,3.5,7.7,11.5,3.1,16.5c-3.6,4.5-10.1,4.2-15,2.3c0-2.7,0-5.4,0-8.1c2.9,1.2,8.6,3.9,9.2-1.1
		c-1.9-3.6-6-5.3-8.4-8.6C317,417,317.6,409.5,322.5,406.3z"/>
	<path class="st0" d="M357.6,406.4c3.6-2.8,8.3-1.4,12.4-0.8c0.1,2.7,0.1,5.4,0.3,8.1c-2.6-0.6-9-3.4-8.8,1.3
		c2.1,3.7,6.2,5.5,8.7,8.9c3.7,4.6,2.4,12.5-2.9,15.3c-3.9,2.4-8.5,1.3-12.6,0.2c0-2.8,0-5.5,0.1-8.2c3.2,1.4,6.8,2.9,9.9,0.4
		c-1.6-5-7.2-6.9-9.8-11.3C352.2,415.8,353.1,409.3,357.6,406.4z"/>
	<path class="st0" d="M179.2,405.8c2.7,0,5.5,0,8.3,0c0,11.3,0,22.6,0,33.9c-2.8,0-5.5,0-8.3,0.1
		C179.2,428.5,179.2,417.1,179.2,405.8z"/>
	<path class="st0" d="M23.4,423.2c31.7-0.5,63.5-1.5,95.2-1.8c0,1.2,0,3.6-0.1,4.7c-39.5-0.6-79.1-1.3-118.6-2.5
		C7.8,423.1,15.6,422.9,23.4,423.2z"/>
	<path class="st0" d="M393,421.4c31.9,0.3,63.8,1.3,95.7,1.8c7.8-0.4,15.6,0.1,23.4,0.3c-39.7,1.4-79.3,2-119,2.7
		C393,425,393,422.6,393,421.4z"/>
</g>
</svg>
