<?xml version="1.0" encoding="utf-8"?>
<!-- Generator: Adobe Illustrator 24.2.1, SVG Export Plug-In . SVG Version: 6.00 Build 0)  -->
<svg version="1.1" id="Capa_1" xmlns="http://www.w3.org/2000/svg" xmlns:xlink="http://www.w3.org/1999/xlink" x="0px" y="0px"
	 width="512px" height="141.3px" viewBox="0 0 512 141.3" style="enable-background:new 0 0 512 141.3;" xml:space="preserve">
<style type="text/css">
	.st0{fill:#FF6900;}
</style>
<g>
	<g>
		<g>
			<path class="st0" d="M388.3,3.4c17.7-5.7,37.6-4.2,54.1,4.4c20.6,10.4,35.2,31.4,37.8,54.3c10.6,2.9,21.3,5.5,31.8,8.5
				c-10.6,2.9-21.2,5.6-31.8,8.5c-1.7,13.7-7.4,27-16.4,37.4c-10.9,12.8-26.5,21.5-43.1,24c-17.3,2.7-35.6-1.4-50.1-11.2
				c-17.2-11.4-28.7-30.7-30.8-51.1c-10.5-2.7-21.1-4.6-31.5-7.7c10.5-2.5,21-4.7,31.4-7.5c1.4-9.5,4-18.9,8.9-27.2
				C357.1,20.5,371.6,8.7,388.3,3.4z M400.5,12.1c-12.3,2-24,7.9-32.7,16.9c-18.6,18-22.5,48.7-9.5,70.9c7.3,12.9,19.6,23,33.8,27.3
				c15.7,4.9,33.6,3.1,47.8-5.4c10.1-5.9,18.4-14.8,23.4-25.3c7.5-15.3,7.9-33.9,1-49.6c-5.7-13.1-16.3-24.1-29.3-30.1
				C424.4,11.8,412.2,10.3,400.5,12.1z"/>
		</g>
		<path class="st0" d="M380.6,29c6.1-3.9,12.7-6.6,19.4-9.2c-1.5,3.2-3.7,6.2-3.9,9.8c-1,8.3,2.1,16.4,5,24c3,6.9,6,13.7,9.1,20.5
			c2.9-8.2,6.8-16,10.3-24c2.5-5.9,5-12.2,4.5-18.8c-0.1-4.2-2.3-7.8-4.2-11.4c12.2,3.9,24.6,10,32,20.9c2.3,3.9,5.4,7.9,5.6,12.6
			c-3.6,22.8-11.4,45.9-27,63.4c-2.8,3.8-7.9,4-12.2,5.2c5.6-12.1,10.9-24.4,14.1-37.4c2.8-10.6,3.8-21.6,3.9-32.5
			c-9.3,19-17.8,38.4-27,57.5C401,90.6,392,71.6,382.6,52.8c0.5,24,7.6,47.5,18.1,69c-3-0.8-6.4-1-8.9-3
			c-17.5-17.5-26.9-41.7-30.1-65.9C365.5,43.4,371.8,34.5,380.6,29z"/>
	</g>
	<g>
		<path class="st0" d="M2.5,14.1c11.4,1.1,22.9,2.1,34.2,3.9c2.9,10.4,5.5,20.9,9,31.1c2.7-8.8,5.3-17.5,8-26.2
			c0.5-0.9,0.5-2.9,2-2.3c5.6,0.7,11.2,1.6,16.9,2.4c0,22.2,0,44.4-0.1,66.5c-5.5,0.5-11,0.9-16.5,1.5c0-10.3,0.2-20.7-0.1-31
			c-0.7,1-1.2,2-1.7,3.1c-3,7.9-5.7,15.9-8.7,23.8c-3.4-9.1-6.6-18.3-10-27.4c-0.3,1.4-0.4,2.8-0.4,4.3c0.1,9.8,0,19.7,0,29.5
			C24.1,94.6,13,96.2,2,97.9c6.1-2.9,12.2-5.7,18.6-8c-0.4-0.1-1.2-0.3-1.6-0.3c0-18.6,0-37.2,0-55.8c0.1-4.3-0.2-8.6,0.3-12.9
			C13.6,18.7,7.9,16.9,2.5,14.1z"/>
		<path class="st0" d="M280,17.9c9.9-1.6,19.8-3.1,29.8-3.5c-5.9,2.6-12,4.7-17.8,7.4c1.4-0.1,2.8-0.3,4.1-0.4
			c-2.6,9.1-5,18.3-7.6,27.4c-0.5,1.7-1.1,3.4-0.6,5.2c2.8,11.8,5.6,23.6,8.1,35.5c-1.4-0.2-2.8-0.4-4.3-0.6
			c5.9,2.9,12,5.6,18.1,8.3c-3.6,0.1-7.2-0.9-10.8-1.4c-6.7-1.2-13.4-2.1-20.1-3.1c-2.3-10.3-4.4-20.6-6.6-30.9c-1.1,0-2.1,0-3.2,0
			c0,9.8,0,19.6,0,29.4c-5.8-0.3-11.5-1.2-17.2-1.7c0-22.5,0-45.1,0-67.6c5.7-0.9,11.4-1.8,17.2-2.6c0,10.2,0,20.5,0,30.7
			c0.6,0,1.7,0.1,2.3,0.1C274.5,39.5,277.3,28.7,280,17.9z"/>
		<g>
			<path class="st0" d="M214.4,27.4c6-0.9,12.1-1.6,18.1-2.4c5.1,21.4,10.3,42.8,15,64.2c-5.6-0.4-11.3-1-16.9-1.3
				c-0.5-2.6-1.1-5.2-1.6-7.9c-3.8,0-7.6-0.3-11.3-0.3c-0.6,2.4-0.5,5.1-1.7,7.3c-5.6-0.2-11.1-0.4-16.7-0.6
				C204.5,66.7,209.6,47.1,214.4,27.4z M220.1,68.2c-2.4,0.5-4.9,1.1-7.3,1.6c4.8,0.5,9.6,0.3,14.4,0.3c-1.4-6.9-2.3-13.8-3.8-20.6
				C222.3,55.7,221.2,61.9,220.1,68.2z"/>
		</g>
		<g>
			<path class="st0" d="M92.1,25.6c6,0.7,12,1.5,18,2.1c5,19.6,9.8,39.2,15.2,58.8c-5.7,0.4-11.3,0.5-17,0.8c-0.5-2.4-1-4.8-1.4-7.3
				c-3.8-0.1-7.6,0.1-11.3,0.2c-0.5,2.6-1,5.1-1.4,7.7c-5.7,0.4-11.3,0.8-17,1.1C81.7,67.8,86.7,46.6,92.1,25.6z M97.5,68.4
				c-1.3,0.6-2.9,0.7-3.9,1.8c3.7,0.2,7.5,0.1,11.2,0.1c-1.2-6.7-2.4-13.4-3.6-20.1C99.4,56.1,99.1,62.4,97.5,68.4z"/>
		</g>
		<path class="st0" d="M117.5,28.6c9.4,0.6,18.8,1.6,28.2,1.9c2.6,7.2,5.4,14.3,8.1,21.4c0.6-7,0.1-14,0.2-21
			c5.7-0.1,11.5,0.2,17.2-0.3c0,18.4,0,36.8,0,55.2c-5.7,0-11.5,0-17.2,0c-2.9-7.4-6-14.7-8.5-22.2c-0.7,7.5-0.2,15-0.4,22.5
			c-5.2-0.1-10.4,0.3-15.6,0.2c0-17.5,0-35.1-0.1-52.7c2.2,0.1,4.5,0.2,6.7,0.5C130,32.3,123.6,30.9,117.5,28.6z"/>
		<path class="st0" d="M178.1,30.5c5.6-0.4,11.2-0.7,16.8-1.2c0,19,0,38,0,57c-5.6-0.4-11.2,0.1-16.8-0.3
			C178.2,67.5,178.1,49,178.1,30.5z"/>
		<path class="st0" d="M89,105.7c3.2,0,6.3,0,9.5,0c0,1.5,0,3.1,0,4.6c-1.5,0-3.1,0-4.6,0c0,0.9,0,2.7,0,3.6c1.4,0,2.8,0,4.2,0
			c0,1.5,0,2.9,0,4.4c-1.4,0-2.8,0-4.2,0c0,2.7,0,5.5-0.1,8.2c-1.6,0-3.2-0.1-4.8-0.1C89,119.5,89,112.6,89,105.7z"/>
		<path class="st0" d="M124.8,105.6c3.8,0,7.6,0,11.5,0c0,1.6,0,3.3,0,4.9c-1.1,0-2.2,0-3.4,0c0,5.3,0.1,10.6-0.1,15.8
			c-1.5,0-3.1,0-4.6,0c-0.2-5.3-0.1-10.6-0.1-15.9c-1.1,0-2.2,0-3.3,0C124.8,108.9,124.8,107.2,124.8,105.6z"/>
		<path class="st0" d="M146.8,105.6c1.6,0.1,3.2,0.1,4.9,0.2c1.8,3.2,2.8,7,5.4,9.7c0.1-3.3,0-6.5,0-9.7c1.6,0,3.2-0.1,4.8-0.1
			c0.1,6.9,0,13.9-0.1,20.8c-1.6,0-3.3,0-4.9-0.1c-1.8-3.7-3.8-7.4-5.3-11.2c-0.2,3.8-0.2,7.5-0.1,11.3c-1.6,0-3.2,0-4.8,0
			C146.8,119.4,146.7,112.5,146.8,105.6z"/>
		<path class="st0" d="M173.9,105.7c3.2,0,6.5,0,9.7,0c0,1.5,0,2.9,0,4.4c-1.5,0-3.1,0-4.6,0c0,0.9,0,2.8,0,3.8c1.3,0,2.6,0,4,0
			c0,1.5,0,2.9,0,4.4c-1.3,0-2.6,0-3.9,0c0,0.9,0,2.7,0,3.6c1.5,0,3.1,0,4.6,0c0,1.5,0,3,0,4.6c-3.2,0-6.5,0-9.7,0
			C174,119.5,173.9,112.6,173.9,105.7z"/>
		<path class="st0" d="M196.8,105.9c2.2-1.6,5.1-0.8,7.6-0.4c0,1.7,0.1,3.4,0.1,5c-1.6-0.4-3.5-1.7-5.1-0.5c-1.1,2.1,1.9,3.2,3,4.5
			c3.2,2.1,4.7,7,1.9,10.1c-2.2,2.7-6.1,2.6-9.1,1.4c0-1.6,0-3.3,0-4.9c1.7,0.7,5.3,2.4,5.6-0.7c-1.1-2.2-3.7-3.2-5.1-5.2
			C193.4,112.5,193.8,107.9,196.8,105.9z"/>
		<path class="st0" d="M218.2,106c2.2-1.7,5.1-0.8,7.6-0.5c0,1.7,0.1,3.3,0.2,5c-1.6-0.4-5.5-2.1-5.4,0.8c1.3,2.2,3.8,3.4,5.3,5.4
			c2.3,2.8,1.5,7.6-1.8,9.3c-2.4,1.5-5.2,0.8-7.7,0.1c0-1.7,0-3.4,0.1-5c1.9,0.8,4.1,1.8,6,0.3c-1-3.1-4.4-4.2-6-6.9
			C214.9,111.8,215.5,107.8,218.2,106z"/>
		<path class="st0" d="M109.4,105.6c1.7,0,3.4,0,5.1,0c0,6.9,0,13.8,0,20.7c-1.7,0-3.4,0-5,0C109.4,119.5,109.3,112.6,109.4,105.6z"
			/>
		<path class="st0" d="M14.3,116.3c19.4-0.3,38.7-0.9,58.1-1.1c0,0.7,0,2.2,0,2.9c-24.1-0.4-48.3-0.8-72.4-1.5
			C4.8,116.2,9.5,116.1,14.3,116.3z"/>
		<path class="st0" d="M239.8,115.1c19.5,0.2,38.9,0.8,58.4,1.1c4.8-0.2,9.5,0.1,14.3,0.2c-24.2,0.9-48.4,1.2-72.6,1.6
			C239.8,117.3,239.8,115.9,239.8,115.1z"/>
	</g>
</g>
</svg>
